<svg xmlns="http://www.w3.org/2000/svg" width="25" height="25" viewBox="0 0 25 25">
  <path id="facebook" d="M21.875,25h-4.3a1.953,1.953,0,0,1-1.953-1.953V17.578a1.953,1.953,0,0,1,1.953-1.953h.631a1.021,1.021,0,0,0,.931-.734l.414-1.56a.609.609,0,0,0-.579-.831h-1.4a1.953,1.953,0,0,1-1.953-1.953V9.766a1.953,1.953,0,0,1,1.953-1.953H18.75a.782.782,0,0,0,.781-.781V5.469a.782.782,0,0,0-.781-.781H16.406A3.906,3.906,0,0,0,12.5,8.594v1.953A1.953,1.953,0,0,1,10.547,12.5h-.372a.819.819,0,0,0-.8.831v1.56a.733.733,0,0,0,.736.734h.436A1.953,1.953,0,0,1,12.5,17.578v5.469A1.954,1.954,0,0,1,10.547,25h-.391a.781.781,0,1,1,0-1.562.782.782,0,0,0,.781-.781V17.969a.781.781,0,0,0-.781-.781H9.644a1.826,1.826,0,0,1-1.832-1.835v-2.34a2.051,2.051,0,0,1,2-2.076h.341a.781.781,0,0,0,.781-.78V8.2a5.078,5.078,0,0,1,5.078-5.078h3.125a1.952,1.952,0,0,1,1.952,1.953V7.422a1.953,1.953,0,0,1-1.952,1.953H17.188v.781a.781.781,0,0,0,.781.78h1.463a1.653,1.653,0,0,1,1.614,2.076l-.439,2.34a2.3,2.3,0,0,1-2.175,1.835h-.464a.781.781,0,0,0-.781.781v4.687a.781.781,0,0,0,.781.781h3.906a1.563,1.563,0,0,0,1.563-1.562V3.125a1.562,1.562,0,0,0-1.562-1.563H3.125A1.562,1.562,0,0,0,1.563,3.125v18.75a1.563,1.563,0,0,0,1.563,1.563h.781a.781.781,0,1,1,0,1.563H3.125A3.126,3.126,0,0,1,0,21.875V3.125A3.125,3.125,0,0,1,3.125,0h18.75A3.124,3.124,0,0,1,25,3.125v18.75A3.125,3.125,0,0,1,21.875,25ZM7.031,23.438a.781.781,0,1,1-.781.781.781.781,0,0,1,.781-.781Z" fill="#fff" fill-rule="evenodd"/>
</svg>
