<svg xmlns="http://www.w3.org/2000/svg" width="53.863" height="72.583" viewBox="0 0 53.863 72.583">
  <g id="golden-cup" transform="translate(-66.024)">
    <path id="Path_11" data-name="Path 11" d="M143.47,35.748a34.708,34.708,0,0,1,0,23.719c3.027,8.039,9.035,13.516,15.953,13.516s12.925-5.478,15.953-13.517a34.708,34.708,0,0,1,0-23.718" transform="translate(-66.467 -30.68)" fill="#ffd600"/>
    <g id="Group_65" data-name="Group 65" transform="translate(72.2 1.146)">
      <path id="Path_12" data-name="Path 12" d="M141.159,12.006h7.979a1.961,1.961,0,0,0,0-3.922H111.548a1.961,1.961,0,0,0,0,3.922h25.907" transform="translate(-109.587 -8.084)" fill="#ffd600"/>
      <path id="Path_13" data-name="Path 13" d="M242.169,297.357v13.818h3.922V297.357a12.959,12.959,0,0,1-3.922,0Z" transform="translate(-223.374 -256.349)" fill="#ffd600"/>
    </g>
    <path id="Path_14" data-name="Path 14" d="M242.169,297.357v13.818h3.922V297.357a12.959,12.959,0,0,1-3.922,0Z" transform="translate(-151.174 -255.203)" fill="#ffd600"/>
    <path id="Path_15" data-name="Path 15" d="M178.772,424.329a1.834,1.834,0,0,0-1.834-1.834H150.045a1.834,1.834,0,0,0-1.834,1.834V432.2a1.834,1.834,0,0,0,1.834,1.834h26.894a1.834,1.834,0,0,0,1.834-1.834Z" transform="translate(-70.536 -362.601)" fill="#ffd600"/>
    <path id="Path_16" data-name="Path 16" d="M203.549,396.792a1.961,1.961,0,0,0-1.96-1.961H184.754a1.961,1.961,0,1,0,0,3.922h16.835A1.961,1.961,0,0,0,203.549,396.792Z" transform="translate(-100.215 -338.859)" fill="#ffd600"/>
    <path id="Path_17" data-name="Path 17" d="M150.92,59.469a34.708,34.708,0,0,0,0-23.719h-7.452a34.708,34.708,0,0,1,0,23.719c3.027,8.039,9.035,13.516,15.953,13.516a13.11,13.11,0,0,0,3.726-.543C157.838,70.874,153.388,66.023,150.92,59.469Z" transform="translate(-66.465 -30.682)" fill="#ffd600"/>
    <path id="Path_18" data-name="Path 18" d="M117.04,10.046A1.961,1.961,0,0,1,119,8.085h-7.452a1.961,1.961,0,1,0,0,3.922H119A1.961,1.961,0,0,1,117.04,10.046Z" transform="translate(-37.388 -6.939)" fill="#ffd600"/>
    <path id="Path_19" data-name="Path 19" d="M155.663,432.2v-7.875a1.834,1.834,0,0,1,1.834-1.834h-7.452a1.834,1.834,0,0,0-1.834,1.834V432.2a1.834,1.834,0,0,0,1.834,1.834H157.5A1.834,1.834,0,0,1,155.663,432.2Z" transform="translate(-70.536 -362.601)" fill="#ffd600"/>
    <path id="Path_20" data-name="Path 20" d="M190.247,396.792a1.961,1.961,0,0,1,1.961-1.961h-7.452a1.961,1.961,0,1,0,0,3.922h7.452A1.961,1.961,0,0,1,190.247,396.792Z" transform="translate(-100.217 -338.859)" fill="#ffd600"/>
    <g id="Group_66" data-name="Group 66" transform="translate(66.024)">
      <path id="Path_21" data-name="Path 21" d="M119.57,9.713a1.146,1.146,0,0,0-1.134-.983h-9.469c.216-.858.465-1.7.747-2.516h2.037a3.107,3.107,0,0,0,0-6.214H74.161a3.107,3.107,0,0,0,0,6.214H76.2q.424,1.227.747,2.516H67.475a1.146,1.146,0,0,0-1.134.983,30.424,30.424,0,0,0,3.4,19.032A23.282,23.282,0,0,0,83.491,40.138a1.155,1.155,0,0,0,.2.036A15.957,15.957,0,0,0,89.849,43.1V54.826h-5.31a3.1,3.1,0,0,0-2.995,3.922H79.509a2.983,2.983,0,0,0-2.98,2.98V69.6a2.983,2.983,0,0,0,2.98,2.98H106.4a2.983,2.983,0,0,0,2.98-2.98V61.728a2.983,2.983,0,0,0-2.98-2.98h-2.035a3.1,3.1,0,0,0-2.995-3.922H96.063V43.1a15.962,15.962,0,0,0,6.159-2.927,1.16,1.16,0,0,0,.2-.036,23.282,23.282,0,0,0,13.752-11.393A30.423,30.423,0,0,0,119.57,9.713Zm-19.5-5.791H74.161a.815.815,0,1,1,0-1.629h37.591a.815.815,0,0,1,0,1.629h-7.979a1.146,1.146,0,0,0,0,2.292H107.3a35.651,35.651,0,0,0-1.626,10.714,35.3,35.3,0,0,0,2.01,11.85c-2.719,6.914-7.569,11.444-12.987,12.249l-.16.021q-.173.023-.347.042l-.211.02c-.1.009-.2.016-.307.022-.072,0-.145.009-.217.012-.124.005-.248.008-.372.009h-.255c-.124,0-.249,0-.372-.009l-.217-.012c-.1-.006-.2-.013-.306-.022l-.212-.02c-.116-.012-.231-.026-.346-.042l-.161-.021c-5.418-.806-10.268-5.336-12.986-12.249a35.294,35.294,0,0,0,2.01-11.851A35.648,35.648,0,0,0,78.612,6.214h21.457a1.146,1.146,0,1,0,0-2.292Zm-31.582,7.1h8.948a34.216,34.216,0,0,1,.512,5.906,32.842,32.842,0,0,1-2.015,11.456,1.146,1.146,0,0,0,0,.808,27.723,27.723,0,0,0,3.6,6.715C71.951,31.27,67.366,21.35,68.486,11.022Zm38.6,50.706V69.6a.688.688,0,0,1-.688.688H79.509a.689.689,0,0,1-.688-.688V61.728a.689.689,0,0,1,.688-.688H106.4A.688.688,0,0,1,107.09,61.728Zm-4.9-3.795a.816.816,0,0,1-.814.815H84.538a.815.815,0,1,1,0-1.629h16.835A.816.816,0,0,1,102.188,57.933ZM93.771,43.425v11.4h-1.63v-11.4l.082,0,.142.006c.394.017.787.017,1.181,0l.142-.006Zm12.61-7.519a27.718,27.718,0,0,0,3.6-6.716,1.146,1.146,0,0,0,0-.808,32.841,32.841,0,0,1-2.015-11.455,34.214,34.214,0,0,1,.512-5.906h8.947C118.546,21.35,113.96,31.271,106.381,35.907Z" transform="translate(-66.024)" fill="#ffd600"/>
      <path id="Path_22" data-name="Path 22" d="M174.709,456.268a1.146,1.146,0,0,0,1.146,1.146h20.756a1.146,1.146,0,1,0,0-2.292H175.855A1.146,1.146,0,0,0,174.709,456.268Z" transform="translate(-159.302 -390.603)" fill="#ffd600"/>
    </g>
  </g>
</svg>
