<svg xmlns="http://www.w3.org/2000/svg" width="25" height="25" viewBox="0 0 25 25">
  <g id="Info-i" transform="translate(-73.82 -73.825)">
    <g id="Info" transform="translate(73.82 73.825)">
      <path id="Path_1" data-name="Path 1" d="M86.32,73.825a12.5,12.5,0,1,0,12.5,12.5,12.5,12.5,0,0,0-12.5-12.5ZM89.288,92.99q-.963.38-1.537.579a4.046,4.046,0,0,1-1.333.2A2.658,2.658,0,0,1,84.6,93.2a1.841,1.841,0,0,1-.647-1.445,5.063,5.063,0,0,1,.048-.7q.049-.356.156-.8l.8-2.84c.071-.273.132-.529.181-.773a3.357,3.357,0,0,0,.073-.666,1.03,1.03,0,0,0-.224-.759A1.268,1.268,0,0,0,84.136,85a2.265,2.265,0,0,0-.638.1c-.218.065-.4.127-.561.185l.215-.876q.789-.321,1.509-.549a4.511,4.511,0,0,1,1.365-.229,2.6,2.6,0,0,1,1.786.56,1.856,1.856,0,0,1,.628,1.454c0,.124-.014.341-.043.652a4.385,4.385,0,0,1-.161.856l-.8,2.829a7.742,7.742,0,0,0-.175.78,4.044,4.044,0,0,0-.078.66.954.954,0,0,0,.251.769,1.412,1.412,0,0,0,.874.2,2.534,2.534,0,0,0,.661-.1,3.77,3.77,0,0,0,.535-.179ZM89.145,81.5a1.9,1.9,0,0,1-1.346.521,1.923,1.923,0,0,1-1.353-.521,1.693,1.693,0,0,1,0-2.524A1.915,1.915,0,0,1,87.8,78.45a1.9,1.9,0,0,1,1.346.525,1.7,1.7,0,0,1,0,2.524Z" transform="translate(-73.82 -73.825)" fill="#fff"/>
    </g>
  </g>
</svg>
