<svg xmlns="http://www.w3.org/2000/svg" width="25" height="25" viewBox="0 0 25 25">
  <path id="instagram-theme-3" d="M18.75,3.907V5.469a.781.781,0,0,0,.781.781h1.563a.781.781,0,1,1,0,1.563H19.141a1.948,1.948,0,0,1-1.938-1.8c0-.053-.016-.1-.016-.158V3.907a.781.781,0,0,1,1.563,0ZM6.25,13.281a.781.781,0,1,1,.781.782.782.782,0,0,1-.781-.782ZM12.5,18.75a6.222,6.222,0,0,1-4.361-1.778.779.779,0,1,1,1.044-1.155l0,0a4.683,4.683,0,0,0,7.949-2.653h.006a.781.781,0,1,1,1.516.351A6.242,6.242,0,0,1,12.5,18.75Zm11.719-4.688A.781.781,0,1,1,25,13.281a.781.781,0,0,1-.781.782ZM20.313,25H4.687A4.688,4.688,0,0,1,0,20.312V12.5A3.125,3.125,0,0,1,3.124,9.375H6.25A1.562,1.562,0,0,0,7.5,8.748a.165.165,0,0,1,.024-.021,6.233,6.233,0,0,1,9.949,0,.163.163,0,0,1,.024.021,1.562,1.562,0,0,0,1.252.627h3.125a1.563,1.563,0,0,0,1.563-1.563V4.688a3.125,3.125,0,0,0-3.125-3.125H4.687A3.125,3.125,0,0,0,1.563,4.688V7.031A.781.781,0,1,1,0,7.031V4.688A4.688,4.688,0,0,1,4.687,0H20.313A4.688,4.688,0,0,1,25,4.688V7.813a3.125,3.125,0,0,1-3.124,3.125H18.75a3.12,3.12,0,0,1-2.5-1.248c0-.006-.011-.007-.015-.012a4.677,4.677,0,0,0-7.474,0c0,.005-.011.006-.015.012a3.119,3.119,0,0,1-2.5,1.248H3.124A1.562,1.562,0,0,0,1.563,12.5v7.812a3.125,3.125,0,0,0,3.125,3.125H20.313a3.125,3.125,0,0,0,3.125-3.125V16.406a.781.781,0,1,1,1.562,0v3.906A4.688,4.688,0,0,1,20.313,25Z" fill="#012147" fill-rule="evenodd"/>
</svg>
