<svg xmlns="http://www.w3.org/2000/svg" width="25" height="25" viewBox="0 0 25 25">
  <path id="twitter-theme-3" d="M25,36.233a1.988,1.988,0,0,1-.292,1.051,9.759,9.759,0,0,1-1.825,2.088.941.941,0,0,0-.235.588A20.078,20.078,0,0,1,19.1,51.148C16.43,54.635,12.8,57,8.594,57a.9.9,0,0,1,0-1.786c7.742,0,11.96-7.734,12.452-14.336a1.581,1.581,0,0,0,.037-.38c0-.056,0-.112,0-.167a3.085,3.085,0,0,1,.8-1.954.785.785,0,0,0,.057-.071,13.008,13.008,0,0,0,1.487-2.073,8.057,8.057,0,0,1-1.8.666.212.212,0,0,1-.193-.223.239.239,0,0,1,.057-.157s-.005,0-.006,0a5.292,5.292,0,0,0,1.342-2.333,8.63,8.63,0,0,1-1.3.731,2.271,2.271,0,0,1-.945.21,2.31,2.31,0,0,1-1.408-.486c-.016-.012-.032-.02-.047-.031a3.766,3.766,0,0,0-2.328-.821l-.092.019a4.075,4.075,0,0,0-3.967,3.164c-.015.008-.173.8-.189.918a2.053,2.053,0,0,1-1.929,1.883,1.613,1.613,0,0,1-.312-.03,11.634,11.634,0,0,1-6.6-3.873.3.3,0,0,1-.033-.03.536.536,0,0,0-.829,0,.7.7,0,0,0-.124.208c-.007.019-.011.019-.017.023a4.978,4.978,0,0,0-.361,1.735A5.428,5.428,0,0,0,3.429,41.02s-.008,0,0,0a.487.487,0,0,1,.091.287.422.422,0,0,1-.391.446A.334.334,0,0,1,3,41.726l-.018-.009a.027.027,0,0,1-.027,0,.347.347,0,0,0-.174-.047.421.421,0,0,0-.389.436A5.613,5.613,0,0,0,4.6,45.926c-.015,0-.024,0-.018,0a.466.466,0,0,1,.177.374.422.422,0,0,1-.391.446H4.358l-.015,0L4.3,46.736a.211.211,0,0,0-.187.221.237.237,0,0,0,.019.1A5.136,5.136,0,0,0,5.666,49.3c.008.007.01.013.019.021a1.427,1.427,0,0,1,.165.16,1.725,1.725,0,0,1,0,2.209,1.35,1.35,0,0,1-.564.388h0a7.425,7.425,0,0,1-2.549.459H2.247a.211.211,0,0,0-.2.223.228.228,0,0,0,.077.173c.322.218.651.431.993.629h0a.884.884,0,0,1,.389.75.812.812,0,0,1-.753.861A.694.694,0,0,1,2.3,55c-.547-.327-1.078-.678-1.583-1.051a1.956,1.956,0,0,1-.629-2.131,1.465,1.465,0,0,1,1.47-1.065,11.416,11.416,0,0,0,1.172,0,5.953,5.953,0,0,0,1.66-.3A7.1,7.1,0,0,1,2.526,47.24a2.07,2.07,0,0,1-.031-.971A8.11,8.11,0,0,1,.781,41.377a1.925,1.925,0,0,1,.513-1.14,8.037,8.037,0,0,1-.513-2.431,7.955,7.955,0,0,1,.955-3.515,1.884,1.884,0,0,1,1.389-.948,1.5,1.5,0,0,1,1.179.717A10.716,10.716,0,0,0,10.353,37.9a.609.609,0,0,0,.121.014.811.811,0,0,0,.761-.694c.622-3,2.66-5.224,5.47-5.224a5.516,5.516,0,0,1,3.327,1.151.89.89,0,0,0,.524.177.834.834,0,0,0,.246-.04,6.961,6.961,0,0,0,1.226-.658,1.34,1.34,0,0,1,.8-.182,1.372,1.372,0,0,1,.977.323,1.979,1.979,0,0,1,.516,1.964s0,0,0,.006A1.9,1.9,0,0,1,25,36.233ZM1.563,50.75c-.061-.008.061,0,0,0ZM3.125,33.342c-.04,0,.04,0,0,0ZM5.86,54.768a.9.9,0,0,1,0,1.786.9.9,0,0,1,0-1.786Z" transform="translate(0 -32)" fill="#012147" fill-rule="evenodd"/>
</svg>
