<svg xmlns="http://www.w3.org/2000/svg" width="43.262" height="58.297" viewBox="0 0 43.262 58.297">
  <g id="white-cup" transform="translate(-66.024)">
    <path id="Path_11" data-name="Path 11" d="M143.47,35.748a27.877,27.877,0,0,1,0,19.051c2.431,6.457,7.256,10.856,12.813,10.856s10.381-4.4,12.813-10.856a27.877,27.877,0,0,1,0-19.05" transform="translate(-68.628 -31.678)" fill="#fff"/>
    <g id="Group_65" data-name="Group 65" transform="translate(70.984 0.92)">
      <path id="Path_12" data-name="Path 12" d="M134.945,11.234h6.409a1.575,1.575,0,0,0,0-3.15H111.162a1.575,1.575,0,1,0,0,3.15H131.97" transform="translate(-109.587 -8.084)" fill="#fff"/>
      <path id="Path_13" data-name="Path 13" d="M242.169,297.357v11.1h3.15v-11.1a10.41,10.41,0,0,1-3.15,0Z" transform="translate(-227.073 -264.42)" fill="#fff"/>
    </g>
    <path id="Path_14" data-name="Path 14" d="M242.169,297.357v11.1h3.15v-11.1a10.41,10.41,0,0,1-3.15,0Z" transform="translate(-156.089 -263.5)" fill="#fff"/>
    <path id="Path_15" data-name="Path 15" d="M172.757,423.968a1.473,1.473,0,0,0-1.473-1.473h-21.6a1.473,1.473,0,0,0-1.473,1.473v6.325a1.473,1.473,0,0,0,1.473,1.473h21.6a1.473,1.473,0,0,0,1.473-1.473Z" transform="translate(-72.829 -374.389)" fill="#fff"/>
    <path id="Path_16" data-name="Path 16" d="M199.464,396.406a1.575,1.575,0,0,0-1.575-1.575H184.368a1.575,1.575,0,1,0,0,3.15h13.521A1.575,1.575,0,0,0,199.464,396.406Z" transform="translate(-103.473 -349.875)" fill="#fff"/>
    <path id="Path_17" data-name="Path 17" d="M149.453,54.8a27.877,27.877,0,0,0,0-19.051h-5.985a27.877,27.877,0,0,1,0,19.051c2.431,6.457,7.256,10.856,12.813,10.856a10.529,10.529,0,0,0,2.993-.436C155.01,63.96,151.436,60.065,149.453,54.8Z" transform="translate(-68.626 -31.679)" fill="#fff"/>
    <path id="Path_18" data-name="Path 18" d="M115.573,9.66a1.575,1.575,0,0,1,1.575-1.575h-5.985a1.575,1.575,0,1,0,0,3.15h5.985A1.575,1.575,0,0,1,115.573,9.66Z" transform="translate(-38.604 -7.164)" fill="#fff"/>
    <path id="Path_19" data-name="Path 19" d="M154.2,430.293v-6.325a1.473,1.473,0,0,1,1.473-1.473h-5.985a1.473,1.473,0,0,0-1.473,1.473v6.325a1.473,1.473,0,0,0,1.473,1.473h5.985A1.473,1.473,0,0,1,154.2,430.293Z" transform="translate(-72.829 -374.389)" fill="#fff"/>
    <path id="Path_20" data-name="Path 20" d="M188.78,396.406a1.575,1.575,0,0,1,1.575-1.575H184.37a1.575,1.575,0,1,0,0,3.15h5.985A1.575,1.575,0,0,1,188.78,396.406Z" transform="translate(-103.475 -349.875)" fill="#fff"/>
    <g id="Group_66" data-name="Group 66" transform="translate(66.024)">
      <path id="Path_21" data-name="Path 21" d="M109.031,7.8a.92.92,0,0,0-.911-.79h-7.605c.173-.689.373-1.364.6-2.021h1.636a2.5,2.5,0,0,0,0-4.991H72.559a2.5,2.5,0,0,0,0,4.991h1.636q.34.985.6,2.021H67.19a.921.921,0,0,0-.911.79,24.436,24.436,0,0,0,2.729,15.286,18.7,18.7,0,0,0,11.045,9.151.928.928,0,0,0,.16.029,12.816,12.816,0,0,0,4.947,2.351v9.417H80.894a2.487,2.487,0,0,0-2.405,3.15H76.855a2.4,2.4,0,0,0-2.393,2.393V55.9A2.4,2.4,0,0,0,76.855,58.3h21.6a2.4,2.4,0,0,0,2.393-2.393V49.578a2.4,2.4,0,0,0-2.393-2.393H96.821a2.487,2.487,0,0,0-2.405-3.15H90.15V34.618A12.821,12.821,0,0,0,95.1,32.267a.931.931,0,0,0,.16-.029A18.7,18.7,0,0,0,106.3,23.087,24.435,24.435,0,0,0,109.031,7.8ZM93.367,3.15H72.559a.654.654,0,1,1,0-1.309h30.192a.654.654,0,0,1,0,1.309H96.342a.92.92,0,1,0,0,1.841h2.834a28.634,28.634,0,0,0-1.306,8.6,28.351,28.351,0,0,0,1.615,9.518c-2.184,5.553-6.079,9.192-10.431,9.838l-.128.017q-.139.019-.279.034l-.17.016c-.082.007-.164.013-.246.018l-.174.01c-.1,0-.2.006-.3.007h-.2c-.1,0-.2,0-.3-.007l-.175-.01c-.082-.005-.164-.011-.246-.018L86.663,33c-.093-.01-.185-.021-.278-.034l-.129-.017c-4.352-.647-8.247-4.285-10.43-9.838A28.348,28.348,0,0,0,77.44,13.6a28.632,28.632,0,0,0-1.306-8.6H93.368a.92.92,0,1,0,0-1.841ZM68,8.853h7.186A27.481,27.481,0,0,1,75.6,13.6a26.378,26.378,0,0,1-1.619,9.2.921.921,0,0,0,0,.649,22.267,22.267,0,0,0,2.891,5.393C70.785,25.115,67.1,17.148,68,8.853ZM99.007,49.578V55.9a.553.553,0,0,1-.552.552h-21.6A.553.553,0,0,1,76.3,55.9V49.578a.553.553,0,0,1,.552-.552h21.6A.553.553,0,0,1,99.007,49.578ZM95.07,46.531a.655.655,0,0,1-.654.654H80.894a.654.654,0,0,1,0-1.309H94.416A.655.655,0,0,1,95.07,46.531Zm-6.76-11.652v9.157H87V34.878l.066,0,.114.005c.317.014.632.014.949,0l.114-.005Zm10.128-6.039a22.263,22.263,0,0,0,2.892-5.394.921.921,0,0,0,0-.649,26.377,26.377,0,0,1-1.619-9.2,27.48,27.48,0,0,1,.411-4.743h7.186C108.208,17.148,104.525,25.116,98.438,28.839Z" transform="translate(-66.024)" fill="#fff"/>
      <path id="Path_22" data-name="Path 22" d="M174.709,456.042a.92.92,0,0,0,.92.92H192.3a.92.92,0,1,0,0-1.841H175.629A.92.92,0,0,0,174.709,456.042Z" transform="translate(-162.334 -403.302)" fill="#fff"/>
    </g>
  </g>
</svg>
