<svg xmlns="http://www.w3.org/2000/svg" width="25" height="25" viewBox="0 0 25 25">
  <path id="youtube" d="M24.75,83.3a13.27,13.27,0,0,1-1.312,3.62,3.875,3.875,0,0,1-2.578,1.724c-.16.016-.326.03-.491.044v-.009a.661.661,0,0,1-.609-.287,1.287,1.287,0,0,1,0-1.461.692.692,0,0,1,.495-.288v-.012l.08-.007a2.6,2.6,0,0,0,2.075-1.193,7.517,7.517,0,0,0,.823-2.792s.207-2.276.207-4.552V74.906c0-2.276-.207-4.554-.207-4.554a7.519,7.519,0,0,0-.823-2.792,2.6,2.6,0,0,0-2.075-1.191c-2.9-.285-7.834-.284-7.834-.284s-4.936,0-7.833.284A2.6,2.6,0,0,0,2.592,67.56a7.535,7.535,0,0,0-.823,2.792s-.207,2.278-.207,4.554v3.177c0,2.276.207,4.552.207,4.552a7.526,7.526,0,0,0,.823,2.792,3.02,3.02,0,0,0,2.283,1.2c1.657.216,7.624.286,7.624.286.432,0,.781.467.781,1.042S12.931,89,12.5,89c-.013,0-.026,0-.039,0-.493-.007-6.158-.092-8.07-.342a4.395,4.395,0,0,1-2.83-1.737A13.254,13.254,0,0,1,.25,83.3S0,81.062,0,78.306V74.681c0-2.756.25-4.992.25-4.992a13.2,13.2,0,0,1,1.311-3.6,3.92,3.92,0,0,1,2.578-1.74C7.638,64,12.495,64,12.495,64h.011s4.857,0,8.355.345a3.917,3.917,0,0,1,2.578,1.74,13.213,13.213,0,0,1,1.312,3.6s.25,2.235.25,4.992v3.625c0,2.756-.25,4.991-.25,4.991Zm-9.125,3.62c.432,0,.781.467.781,1.042S16.057,89,15.625,89s-.781-.466-.781-1.042.349-1.042.781-1.042Zm-3.493-5.329-.007.005a.624.624,0,0,1-.394.15c-.425,0-.769-.459-.769-1.025a1.1,1.1,0,0,1,.414-.905h0l3.985-2.834s-.009,0,0-.007a.555.555,0,0,0,.221-.469.571.571,0,0,0-.192-.445l-4.665-3.324a.3.3,0,0,0-.172-.055c-.209,0-.375.218-.387.491v6.448h-.006s0,.007,0,.011c0,.576-.351,1.042-.782,1.042s-.781-.466-.781-1.042V72.37c0-1.17.712-2.12,1.59-2.12a1.3,1.3,0,0,1,.82.3c.01.007.013,0,.021.009l5.389,4.14a1.688,1.688,0,0,1,.317.323,2.6,2.6,0,0,1,0,2.947,1.771,1.771,0,0,1-.292.3l-4.274,3.284-.032.025Z" transform="translate(0 -64)" fill="#fff" fill-rule="evenodd"/>
</svg>
